<svg xmlns="http://www.w3.org/2000/svg" style="display:none">
  
  <symbol id="logo" viewBox="0 0 106 31"><path d="M2210 3924 c0 -7 27 -34 34 -34 3 0 3 6 0 14 -5 14 -34 31 -34 20z"/>
<path d="M2160 3909 c0 -5 5 -7 10 -4 6 3 10 8 10 11 0 2 -4 4 -10 4 -5 0 -10
-5 -10 -11z"/>
<path d="M2160 3864 c0 -8 5 -12 10 -9 6 4 8 11 5 16 -9 14 -15 11 -15 -7z"/>
<path d="M2014 3470 c0 -96 2 -136 3 -87 2 48 2 126 0 175 -1 48 -3 8 -3 -88z"/>
<path d="M2497 3633 c-10 -16 -69 -304 -64 -309 10 -10 27 7 27 27 0 14 7 19
29 19 25 0 31 -6 41 -35 6 -19 18 -35 26 -35 17 0 17 -1 3 38 -10 29 -8 33 25
62 55 49 64 109 27 179 -17 30 -103 72 -114 54z m99 -90 c20 -46 10 -86 -28
-118 -36 -31 -103 -36 -94 -7 3 9 12 51 21 92 24 109 20 103 56 85 18 -10 37
-31 45 -52z"/>
<path d="M2536 3559 c-10 -27 -26 -104 -25 -124 0 -11 11 11 25 49 15 45 21
73 14 80 -6 6 -11 4 -14 -5z"/>
<path d="M1958 3614 c-4 -3 -4 -66 -1 -140 3 -74 4 -134 1 -134 -4 0 -143 156
-186 209 -10 13 -12 -10 -10 -132 2 -81 0 -146 -3 -145 -3 2 -45 47 -93 101
-60 66 -92 95 -99 88 -7 -7 28 -53 108 -140 64 -72 118 -131 119 -131 1 0 1
66 -1 148 l-4 147 38 -42 c21 -24 63 -72 93 -107 30 -36 59 -65 64 -65 5 -1 6
29 3 67 -4 37 -7 115 -7 175 0 97 -5 119 -22 101z"/>
<path d="M2641 3573 c34 -66 17 -149 -38 -193 -23 -18 -24 -23 -14 -52 9 -24
8 -33 -1 -40 -10 -6 -10 -8 0 -8 19 0 25 26 12 50 -10 19 -8 26 18 54 16 17
35 41 41 53 17 34 13 104 -9 141 -27 43 -32 41 -9 -5z"/>
<path d="M1815 3560 c-7 -11 6 -30 74 -106 24 -27 42 -42 39 -34 -6 18 -97
150 -103 150 -2 0 -7 -5 -10 -10z"/>
<path d="M2716 3426 c-58 -146 -64 -170 -45 -164 7 2 37 70 69 150 42 108 54
148 44 152 -9 3 -30 -40 -68 -138z"/>
<path d="M2765 3404 c-31 -80 -55 -147 -52 -150 4 -5 127 274 127 289 0 4 -4
7 -9 7 -5 0 -34 -66 -66 -146z"/>
<path d="M2930 3504 c0 -2 -16 -77 -36 -165 -19 -88 -34 -164 -32 -169 4 -11
278 197 278 211 0 20 -26 6 -127 -72 -58 -44 -107 -78 -109 -76 -4 3 38 203
52 248 2 9 -2 19 -11 23 -8 3 -15 3 -15 0z"/>
<path d="M1617 3484 c-6 -7 13 -33 80 -107 53 -59 48 -39 -8 39 -52 71 -61 79
-72 68z"/>
<path d="M2961 3388 c-12 -50 -20 -93 -17 -95 2 -2 17 36 34 86 23 70 27 91
17 95 -10 3 -19 -20 -34 -86z"/>
<path d="M1818 3343 c5 -119 9 -131 10 -30 1 53 -1 97 -5 97 -5 0 -7 -30 -5
-67z"/>
<path d="M3040 3264 c-122 -94 -161 -126 -130 -109 15 9 247 181 265 196 5 6
5 9 0 9 -6 0 -66 -43 -135 -96z"/>
<path d="M1445 3330 c18 -20 17 -21 -20 -53 l-39 -33 37 -40 37 -39 -17 47
c-17 47 -17 48 6 72 19 20 21 28 12 45 -7 12 -17 21 -23 21 -6 0 -3 -9 7 -20z"/>
<path d="M2480 3325 c0 -8 2 -15 4 -15 2 0 6 7 10 15 3 8 1 15 -4 15 -6 0 -10
-7 -10 -15z"/>
<path d="M1358 3289 l-48 -40 103 -119 c56 -65 105 -119 108 -119 4 -1 30 18
57 42 62 51 54 78 -9 28 l-40 -33 -25 23 -25 23 43 36 c28 25 38 39 30 44 -7
4 -28 -6 -50 -24 l-37 -31 -57 63 -58 63 41 35 c22 19 37 39 33 43 -12 11 -16
9 -66 -34z"/>
<path d="M2247 3254 c-54 -58 -72 -203 -42 -332 l15 -63 -58 -69 c-32 -38 -72
-96 -88 -127 -25 -51 -29 -69 -29 -143 0 -75 3 -91 29 -138 55 -99 149 -149
257 -137 l56 7 23 -86 c15 -56 20 -96 16 -120 -7 -39 -55 -85 -89 -87 -64 -4
-96 14 -54 30 49 19 61 71 26 115 -46 59 -129 17 -129 -65 0 -104 155 -146
237 -64 29 29 33 39 33 87 0 29 -9 86 -20 126 l-20 73 43 43 c51 49 71 100 65
160 -12 100 -76 167 -162 168 l-46 1 -19 61 -18 61 24 33 c79 106 103 244 63
362 -21 64 -62 130 -80 130 -5 0 -20 -12 -33 -26z m84 -105 c18 -18 20 -29 15
-66 -7 -57 -35 -119 -71 -161 -39 -46 -50 -30 -50 71 1 84 10 112 48 155 25
27 32 27 58 1z m-61 -471 c12 -50 12 -52 -13 -72 -86 -71 -89 -181 -7 -250 47
-39 71 -33 27 7 -35 31 -41 46 -38 93 1 22 57 91 67 82 3 -3 20 -62 38 -131
38 -142 40 -137 -47 -137 -75 0 -147 43 -177 105 -28 58 -24 139 10 206 24 47
106 149 120 149 4 0 14 -23 20 -52z m156 -171 c59 -54 58 -145 -4 -200 -19
-18 -20 -17 -41 63 -12 44 -28 101 -36 125 l-13 45 29 0 c19 0 42 -11 65 -33z"/>
<path d="M3140 3171 l-115 -109 50 -51 c32 -34 52 -48 59 -41 7 7 -3 23 -29
50 l-39 40 24 25 24 25 36 -35 c20 -19 39 -35 43 -35 17 0 5 28 -23 55 -16 16
-30 31 -30 35 0 3 27 30 61 59 l60 53 34 -32 c53 -51 66 -27 14 26 -24 24 -46
44 -49 44 -3 0 -57 -49 -120 -109z"/>
<path d="M2398 3245 c5 -31 16 -36 137 -64 162 -38 340 -146 461 -281 135
-150 224 -369 195 -478 -7 -23 -16 -40 -20 -37 -5 2 -8 -3 -7 -12 2 -34 -164
-123 -182 -97 -10 14 -52 35 -52 27 0 -12 16 -35 24 -34 18 3 19 -1 1 -9 -11
-5 -77 -9 -147 -9 l-127 -1 25 -92 c14 -51 26 -93 28 -95 1 -2 47 1 102 7 175
18 304 64 384 136 41 37 80 106 80 142 0 11 5 24 12 28 21 13 1 -104 -26 -151
-70 -119 -241 -201 -459 -221 -83 -7 -82 -6 -68 -69 5 -25 12 -31 41 -36 l35
-6 -34 -2 c-31 -1 -33 -3 -28 -29 l6 -29 -100 -9 c-54 -5 -99 -6 -99 -1 0 4
-30 7 -67 6 -75 0 -71 -4 43 -38 39 -11 97 -21 129 -21 84 0 64 -8 -35 -14
-47 -2 -92 -7 -100 -9 -13 -5 -432 -30 -520 -31 -24 -1 -35 4 -38 15 -4 20 36
33 54 18 13 -10 371 5 382 16 3 3 -119 5 -271 5 -287 0 -295 -1 -289 -42 3
-14 -4 -18 -27 -18 -21 0 -31 5 -31 15 0 8 -4 15 -10 15 -5 0 -10 -6 -10 -12
0 -7 -11 -13 -25 -13 -14 0 -25 4 -25 8 0 11 64 37 91 37 40 0 12 11 -48 20
-34 4 -63 4 -70 -2 -7 -6 -14 -5 -18 2 -9 15 -25 12 -25 -5 0 -19 -19 -19 -45
1 -11 8 -37 19 -58 25 l-40 10 34 35 c77 80 187 85 335 15 91 -43 160 -53 158
-23 -1 6 -2 53 -2 102 l-2 90 -70 0 -69 0 -3 62 -3 63 -120 28 c-147 34 -286
45 -349 27 -24 -6 -59 -24 -77 -40 -28 -23 -34 -36 -39 -81 l-6 -54 -17 37
c-23 51 -22 125 3 165 43 72 142 109 263 98 69 -6 241 -43 334 -73 l32 -10 6
56 c4 32 10 81 14 110 5 29 5 54 2 56 -54 30 -326 94 -433 102 -65 5 -88 10
-88 21 0 21 53 134 93 195 48 75 158 190 232 243 69 50 178 106 250 130 54 18
65 28 65 62 0 22 -1 22 -52 7 -70 -20 -205 -84 -276 -131 -138 -91 -266 -244
-342 -406 -40 -85 -80 -220 -80 -268 0 -21 -16 -44 -64 -92 -54 -54 -65 -71
-75 -116 -12 -59 -8 -86 24 -151 24 -48 107 -132 150 -152 22 -10 65 -82 65
-108 0 -4 -20 -15 -44 -24 -52 -20 -116 -80 -142 -134 -26 -51 -26 -183 0
-232 43 -82 115 -133 213 -151 47 -9 67 -19 111 -60 l54 -49 142 0 142 0 42
36 c42 35 43 35 93 25 82 -18 259 -13 370 9 226 46 402 135 553 279 69 67 184
227 235 330 32 64 81 204 81 232 0 10 16 36 35 58 114 126 106 306 -19 437
-26 27 -59 76 -74 109 -48 109 -106 196 -190 286 -157 167 -360 273 -583 304
-46 7 -47 7 -41 -20z m771 -1367 c-97 -232 -297 -433 -529 -529 -219 -92 -435
-115 -640 -71 -31 7 -35 11 -32 36 l4 29 -27 -21 c-30 -24 -31 -23 -147 30
-38 17 -68 34 -68 39 0 16 54 49 81 49 15 0 63 -11 106 -25 235 -74 450 -80
660 -19 236 68 451 245 568 468 22 41 41 73 43 71 2 -2 -7 -27 -19 -57z m-349
-46 c-6 -2 -10 -9 -10 -16 0 -7 -7 -21 -16 -32 -14 -18 -15 -18 -4 4 6 13 10
28 7 35 -5 17 16 38 25 23 4 -6 3 -12 -2 -14z m294 6 c-75 -133 -222 -271
-360 -341 -187 -94 -360 -104 -662 -37 -193 43 -253 46 -322 18 -91 -38 -124
-114 -80 -186 11 -18 31 -38 45 -44 34 -15 32 -30 -2 -22 -106 24 -167 90
-167 178 0 98 73 182 182 207 68 16 152 3 332 -51 279 -84 432 -90 632 -24
132 43 314 181 374 283 10 17 22 31 27 31 4 0 5 -6 1 -12z m-99 -65 c-66 -62
-170 -133 -238 -162 -25 -11 -46 -24 -48 -29 -3 -7 -104 -13 -264 -17 -291 -7
-250 -13 -500 75 -54 19 -122 34 -170 39 -66 6 -39 8 160 14 251 8 587 30 740
48 65 8 90 8 93 0 2 -6 10 -11 18 -11 8 0 14 -10 14 -25 0 -14 3 -25 8 -25 14
0 157 88 192 119 61 53 57 33 -5 -26z m-1437 -34 c24 -10 57 -28 74 -40 l31
-22 -23 -9 c-17 -6 -37 -3 -71 12 -66 28 -151 27 -204 -3 -58 -33 -85 -78 -85
-145 0 -53 2 -58 45 -99 50 -47 78 -58 46 -17 -26 33 -28 100 -5 133 21 30 72
51 124 51 45 0 46 0 25 -40 -12 -23 -22 -30 -45 -30 -40 0 -68 -40 -52 -75 6
-13 22 -31 36 -40 13 -9 27 -28 31 -43 3 -15 8 -35 12 -46 5 -17 0 -18 -53
-14 -76 6 -129 32 -165 81 -118 163 5 394 196 370 22 -3 59 -14 83 -24z m142
-33 c0 -5 -8 -1 -19 10 -10 10 -16 23 -14 27 5 9 32 -22 33 -37z m253 21 c4 3
7 1 7 -5 0 -7 -16 -12 -40 -12 -28 0 -40 4 -40 14 0 19 42 26 56 9 6 -7 14
-10 17 -6z"/>
<path d="M2768 1683 c-5 -20 -2 -23 20 -22 16 1 20 3 10 6 -9 2 -18 12 -20 21
-3 13 -5 12 -10 -5z"/>
<path d="M1550 3215 c0 -5 9 -19 21 -31 l20 -22 -35 -27 c-20 -15 -36 -31 -36
-36 0 -4 19 9 43 31 l42 39 -27 28 c-16 15 -28 23 -28 18z"/>
<path d="M3219 3173 c-24 -26 -28 -34 -14 -28 77 28 75 28 101 4 l24 -23 23
24 22 24 -23 -19 -23 -19 -33 37 c-18 20 -35 37 -37 37 -3 0 -21 -16 -40 -37z"/>
<path d="M1240 3163 c1 -10 240 -176 246 -170 2 2 -46 40 -107 83 -132 93
-139 97 -139 87z"/>
<path d="M1620 3151 c0 -5 7 -15 17 -22 15 -13 15 -12 4 9 -12 23 -21 28 -21
13z"/>
<path d="M1210 3128 c0 -8 46 -46 101 -84 l101 -69 -93 -8 c-52 -4 -132 -11
-177 -15 l-84 -7 125 -88 c135 -94 163 -109 155 -86 -2 8 -49 46 -104 84 l-99
70 110 8 c61 4 139 11 175 15 l65 7 -128 90 c-141 99 -147 103 -147 83z"/>
<path d="M2680 2990 c0 -119 0 -120 -23 -120 -24 0 -67 -37 -67 -58 0 -12 31
-32 50 -32 6 0 22 11 35 25 24 23 25 29 25 165 0 87 -4 140 -10 140 -6 0 -10
-47 -10 -120z"/>
<path d="M3302 3000 c-142 -90 -136 -85 -127 -99 4 -8 13 -7 27 3 19 13 22 13
38 -7 16 -19 16 -25 4 -49 -8 -15 -14 -32 -14 -38 0 -21 20 -9 35 21 15 28 19
30 58 24 105 -15 187 94 142 189 -10 20 -22 36 -29 35 -6 0 -67 -36 -134 -79z
m142 24 c15 -39 6 -76 -28 -110 -38 -38 -77 -44 -125 -19 -50 25 -44 38 43 92
89 57 101 61 110 37z"/>
<path d="M3352 2968 c-34 -22 -61 -43 -58 -45 9 -9 126 58 126 72 0 8 -1 15
-2 14 -2 0 -31 -19 -66 -41z"/>
<path d="M3150 3034 l39 -36 31 22 c17 12 29 25 26 28 -4 3 -17 -5 -31 -18
l-25 -24 -33 32 c-18 18 -36 32 -40 32 -4 0 11 -16 33 -36z"/>
<path d="M1268 2993 c12 -2 32 -2 45 0 12 2 2 4 -23 4 -25 0 -35 -2 -22 -4z"/>
<path d="M1137 2983 c18 -2 50 -2 70 0 21 2 7 4 -32 4 -38 0 -55 -2 -38 -4z"/>
<path d="M3155 2960 c-10 -11 -13 -20 -8 -20 13 0 38 29 31 35 -3 3 -13 -4
-23 -15z"/>
<path d="M3501 2959 c-2 -66 -81 -129 -161 -129 -43 0 -47 -3 -63 -35 -20 -43
-14 -47 8 -5 14 27 21 30 61 30 25 0 58 7 73 15 54 27 102 102 88 137 -3 7 -6
1 -6 -13z"/>
<path d="M1216 2902 c29 -27 146 -104 143 -95 -8 21 -113 103 -133 103 -12 0
-16 -4 -10 -8z"/>
<path d="M1790 2776 c0 -88 -3 -107 -14 -103 -22 9 -58 -22 -54 -46 4 -27 36
-33 63 -14 17 13 19 25 16 101 -2 72 0 86 13 86 26 0 49 -46 42 -83 -4 -23 -3
-28 4 -17 17 26 11 67 -14 97 -12 15 -30 42 -39 58 -16 29 -16 27 -17 -79z"/>
<path d="M3200 2869 c0 -5 5 -7 10 -4 6 3 10 8 10 11 0 2 -4 4 -10 4 -5 0 -10
-5 -10 -11z"/>
<path d="M2925 2528 c-27 -5 -53 -15 -57 -21 -4 -7 -8 -47 -8 -89 0 -59 -3
-78 -13 -78 -22 0 -50 -37 -43 -56 5 -12 2 -15 -9 -10 -9 3 -13 2 -10 -4 8
-13 55 -2 78 18 14 12 17 32 17 107 l0 92 38 6 c20 4 52 9 70 13 l32 7 0 -72
c0 -56 -3 -71 -15 -71 -22 0 -56 -37 -49 -54 5 -13 65 -29 61 -17 -1 3 4 16
11 29 8 14 12 57 11 117 l-2 95 -31 -1 c-17 -1 -53 -6 -81 -11z"/>
<path d="M2661 2344 c0 -11 3 -14 6 -6 3 7 2 16 -1 19 -3 4 -6 -2 -5 -13z"/>
<path d="M3055 2320 c27 -12 43 -12 25 0 -8 5 -22 9 -30 9 -10 0 -8 -3 5 -9z"/>
<path d="M2670 2309 c0 -5 5 -7 10 -4 6 3 10 8 10 11 0 2 -4 4 -10 4 -5 0 -10
-5 -10 -11z"/>
<path d="M2697 2302 c-21 -23 -22 -39 -2 -39 10 0 14 6 10 15 -3 8 0 21 6 28
17 21 5 17 -14 -4z"/>
<path d="M2765 2310 c-3 -5 -1 -10 4 -10 6 0 11 5 11 10 0 6 -2 10 -4 10 -3 0
-8 -4 -11 -10z"/>
<path d="M2895 2310 c3 -5 8 -10 11 -10 2 0 4 5 4 10 0 6 -5 10 -11 10 -5 0
-7 -4 -4 -10z"/>
<path d="M2727 2286 c-4 -10 -1 -13 8 -9 8 3 12 9 9 14 -7 12 -11 11 -17 -5z"/>
<path d="M2890 2280 c20 -13 33 -13 25 0 -3 6 -14 10 -23 10 -15 0 -15 -2 -2
-10z"/>
<path d="M1696 1813 c-11 -11 -6 -23 8 -23 8 0 17 4 20 9 7 10 -19 23 -28 14z"/>
<path d="M2227 1065 c-4 -22 -6 -98 -5 -170 l1 -130 8 150 c10 160 8 215 -4
150z"/>
<path d="M2348 1093 l-56 -4 -6 -72 c-3 -40 -8 -111 -11 -159 l-6 -88 76 0
c53 0 75 4 75 13 0 8 -18 12 -57 12 l-58 0 -3 38 -3 37 55 0 c38 0 56 4 56 13
0 8 -17 12 -52 12 l-53 0 -3 93 -3 92 56 0 c30 0 55 5 55 10 0 6 -1 9 -2 8 -2
-1 -29 -3 -60 -5z"/>
<path d="M2883 1093 l-52 -4 -5 -62 c-17 -198 -18 -257 -2 -257 14 0 16 21 16
155 l0 155 50 0 c28 0 50 5 50 10 0 6 -1 9 -2 8 -2 -1 -26 -3 -55 -5z"/>
<path d="M963 1065 c-47 -29 -83 -91 -83 -147 0 -42 33 -94 80 -126 30 -20 45
-23 101 -20 54 3 73 9 103 31 47 36 66 75 66 134 0 45 -27 107 -47 108 -5 1
-24 11 -43 23 -49 31 -122 30 -177 -3z m175 -12 c71 -52 91 -132 49 -194 -58
-88 -180 -92 -250 -9 -56 66 -37 162 40 208 46 28 120 25 161 -5z"/>
<path d="M971 1005 c-40 -46 -43 -101 -6 -142 l26 -28 -22 38 c-27 47 -19 98
21 139 16 15 25 28 20 28 -4 0 -22 -16 -39 -35z"/>
<path d="M1325 1080 c-4 -6 -9 -79 -12 -162 -5 -127 -4 -150 8 -146 8 2 15 16
17 30 5 41 47 43 74 4 12 -17 23 -33 24 -35 2 -1 8 0 14 4 7 4 4 17 -10 39
l-20 33 21 19 c46 41 59 122 26 164 -17 21 -91 60 -115 60 -12 0 -24 -5 -27
-10z m70 -16 c57 -27 83 -86 61 -138 -18 -43 -49 -68 -86 -69 l-31 -2 -5 102
c-7 132 -3 138 61 107z"/>
<path d="M1377 1024 c-4 -4 -6 -37 -6 -73 l2 -66 8 65 c9 69 8 86 -4 74z"/>
<path d="M1649 1067 c-42 -28 -76 -79 -85 -123 -9 -50 30 -123 81 -151 47 -27
140 -31 171 -9 24 18 13 31 -14 17 -31 -17 -93 -13 -132 8 -141 75 -79 283 80
268 25 -3 53 -8 63 -12 9 -4 17 -3 17 3 0 12 -48 22 -105 22 -27 0 -54 -8 -76
-23z"/>
<path d="M1916 1013 c-11 -131 -8 -245 7 -241 6 3 13 23 15 46 l3 42 110 0
109 0 0 -45 c0 -33 4 -45 15 -45 13 0 15 24 15 160 0 88 -4 160 -9 160 -5 0
-12 -47 -16 -105 l-7 -105 -108 0 -108 0 -7 94 c-4 52 -4 99 -1 105 4 6 3 11
-2 11 -5 0 -12 -34 -16 -77z"/>
<path d="M1977 1083 c-4 -3 -6 -43 -5 -87 l1 -81 7 85 c7 90 7 94 -3 83z"/>
<path d="M2563 1075 c-18 -13 -43 -68 -43 -97 0 -4 20 -30 45 -58 52 -58 58
-91 21 -115 -19 -13 -29 -14 -46 -5 -28 15 -49 1 -25 -17 30 -21 64 -15 96 16
42 43 38 71 -21 136 -27 30 -50 62 -50 71 0 26 19 53 48 68 15 9 20 15 12 16
-9 0 -25 -7 -37 -15z"/>
<path d="M2738 1083 c18 -2 45 -2 60 0 15 2 0 4 -33 4 -33 0 -45 -2 -27 -4z"/>
<path d="M3026 1008 c-12 -177 -12 -238 1 -238 8 0 13 12 13 29 0 24 5 29 30
33 26 4 34 0 51 -29 11 -18 24 -33 28 -33 19 0 19 15 1 40 -22 31 -26 50 -10
50 6 0 19 15 30 33 23 36 26 105 8 129 -23 29 -90 68 -118 68 -28 0 -28 0 -34
-82z m68 58 c98 -41 102 -166 7 -206 -56 -23 -61 -13 -61 110 0 69 4 110 10
110 6 0 25 -6 44 -14z"/>
<path d="M3080 991 c0 -21 -3 -54 -6 -72 -4 -24 -2 -29 4 -19 12 20 21 130 10
130 -4 0 -8 -17 -8 -39z"/>
<path d="M3404 1076 c4 -11 1 -23 -8 -30 -9 -6 -38 -65 -66 -131 -28 -66 -54
-126 -57 -132 -8 -21 21 -15 34 6 11 17 24 19 97 19 74 -1 86 -3 91 -20 6 -17
35 -26 35 -10 0 12 -119 304 -126 311 -4 3 -4 -2 0 -13z m35 -131 c16 -44 32
-88 36 -97 6 -16 -1 -18 -73 -18 l-81 0 25 66 c38 102 54 137 59 133 2 -3 17
-40 34 -84z"/>
<path d="M3387 905 c-23 -48 -21 -57 4 -18 11 18 19 38 17 44 -2 6 -11 -6 -21
-26z"/>
<path d="M1672 1024 c-27 -19 -52 -65 -52 -96 0 -27 35 -88 51 -88 6 0 1 12
-10 26 -32 41 -28 95 10 139 34 39 35 43 1 19z"/>
<path d="M2347 1023 c-3 -10 -8 -31 -11 -48 l-6 -30 14 25 c21 38 29 70 17 70
-5 0 -12 -8 -14 -17z"/>
<path d="M2584 1014 c-5 -21 1 -33 35 -68 50 -51 63 -101 37 -143 l-17 -28 21
25 c32 36 22 88 -29 148 -29 35 -38 55 -34 70 3 12 3 22 -1 22 -3 0 -9 -12
-12 -26z"/>
<path d="M2875 1018 c-3 -13 -4 -75 -3 -138 l4 -115 2 127 c2 109 4 128 20
137 16 10 16 10 0 11 -10 0 -20 -10 -23 -22z"/>
<path d="M1262 970 c0 -14 2 -19 5 -12 2 6 2 18 0 25 -3 6 -5 1 -5 -13z"/>
<path d="M1522 960 c0 -14 2 -19 5 -12 2 6 2 18 0 25 -3 6 -5 1 -5 -13z"/>
<path d="M3502 940 c30 -88 64 -170 69 -170 7 0 -58 171 -69 180 -3 3 -3 -2 0
-10z"/>
<path d="M3212 908 c-10 -30 -10 -31 3 -14 13 17 21 46 12 46 -1 0 -8 -15 -15
-32z"/>
<path d="M1507 911 c-4 -17 -3 -21 5 -13 5 5 8 16 6 23 -3 8 -7 3 -11 -10z"/>
<path d="M1256 890 c-3 -19 -21 -53 -38 -75 l-31 -40 31 29 c32 29 57 85 50
108 -3 7 -8 -3 -12 -22z"/>
<path d="M2443 880 c0 -25 2 -35 4 -22 2 12 2 32 0 45 -2 12 -4 2 -4 -23z"/>
<path d="M1476 861 c-18 -20 -17 -26 22 -90 1 -2 5 -2 8 2 3 3 -4 20 -16 37
-21 30 -21 32 -5 51 10 10 16 19 13 19 -3 0 -13 -9 -22 -19z"/>
<path d="M3180 855 c-11 -13 -9 -22 6 -51 10 -19 20 -30 22 -25 2 5 -4 21 -14
35 -13 21 -14 29 -4 41 7 8 10 15 7 15 -2 0 -10 -7 -17 -15z"/>
<path d="M1851 813 c7 -12 15 -20 18 -17 3 2 -3 12 -13 22 -17 16 -18 16 -5
-5z"/>
<path d="M1968 805 c-3 -14 -1 -28 3 -31 5 -3 9 9 9 25 0 38 -6 40 -12 6z"/>
<path d="M2452 795 c0 -16 2 -22 5 -12 2 9 2 23 0 30 -3 6 -5 -1 -5 -18z"/>
<path d="M1365 791 c-3 -5 -1 -12 5 -16 5 -3 10 1 10 9 0 18 -6 21 -15 7z"/>
<path d="M3071 784 c0 -11 3 -14 6 -6 3 7 2 16 -1 19 -3 4 -6 -2 -5 -13z"/></symbol>
  
  <symbol id="logo-icon" viewBox="0 0 50 41"><path d="M4,12h42c2.2,0,4,1.8,4,4v21c0,2.2-1.8,4-4,4H4c-2.2,0-4-1.8-4-4V16C0,13.8,1.8,12,4,12z"/><path opacity="0.6" d="M45.5,9h-41C3.7,9,3,8.3,3,7.5v0C3,6.7,3.7,6,4.5,6h41C46.3,6,47,6.7,47,7.5v0C47,8.3,46.3,9,45.5,9z"/><path opacity="0.4" d="M7.5,0h35C43.3,0,44,0.7,44,1.5v0C44,2.3,43.3,3,42.5,3h-35C6.7,3,6,2.3,6,1.5v0C6,0.7,6.7,0,7.5,0z"/></symbol>
  
  <symbol id="close" viewBox="0 0 30 30"><path d="M15 0c-8.3 0-15 6.7-15 15s6.7 15 15 15 15-6.7 15-15-6.7-15-15-15zm5.7 19.3c.4.4.4 1 0 1.4-.2.2-.4.3-.7.3s-.5-.1-.7-.3l-4.3-4.3-4.3 4.3c-.2.2-.4.3-.7.3s-.5-.1-.7-.3c-.4-.4-.4-1 0-1.4l4.3-4.3-4.3-4.3c-.4-.4-.4-1 0-1.4s1-.4 1.4 0l4.3 4.3 4.3-4.3c.4-.4 1-.4 1.4 0s.4 1 0 1.4l-4.3 4.3 4.3 4.3z"/></symbol>
  
  <symbol id="close-small" viewBox="0 0 11 11"><path d="M6.914 5.5l3.793-3.793c.391-.391.391-1.023 0-1.414s-1.023-.391-1.414 0l-3.793 3.793-3.793-3.793c-.391-.391-1.023-.391-1.414 0s-.391 1.023 0 1.414l3.793 3.793-3.793 3.793c-.391.391-.391 1.023 0 1.414.195.195.451.293.707.293s.512-.098.707-.293l3.793-3.793 3.793 3.793c.195.195.451.293.707.293s.512-.098.707-.293c.391-.391.391-1.023 0-1.414l-3.793-3.793z"/></symbol>

  <symbol id="arrow-left" viewBox="0 0 31 72"><path d="M30 72c-.3 0-.6-.1-.8-.4l-29-34c-.3-.4-.3-.9 0-1.3l29-36c.3-.4 1-.5 1.4-.2.4.3.5 1 .2 1.4l-28.5 35.5 28.5 33.4c.4.4.3 1.1-.1 1.4-.2.1-.5.2-.7.2z"/></symbol>
  
  <symbol id="arrow-right" viewBox="0 0 31 72"><path d="M1 0c.3 0 .6.1.8.4l29 34c.3.4.3.9 0 1.3l-29 36c-.3.4-1 .5-1.4.2-.4-.3-.5-1-.2-1.4l28.5-35.5-28.5-33.4c-.4-.4-.3-1.1.1-1.4.2-.1.5-.2.7-.2z"/></symbol>
  
  <symbol id="back" viewBox="0 0 20 20"><path d="M2.3 10.7l5 5c.4.4 1 .4 1.4 0s.4-1 0-1.4l-3.3-3.3h11.6c.6 0 1-.4 1-1s-.4-1-1-1h-11.6l3.3-3.3c.4-.4.4-1 0-1.4-.2-.2-.4-.3-.7-.3s-.5.1-.7.3l-5 5c-.2.2-.3.5-.3.7 0 .2.1.5.3.7z"/></symbol>
  
  <symbol id="menu" viewBox="0 0 22 22"><path d="M1 5h20c.6 0 1-.4 1-1s-.4-1-1-1h-20c-.6 0-1 .4-1 1s.4 1 1 1zm20 5h-20c-.6 0-1 .4-1 1s.4 1 1 1h20c.6 0 1-.4 1-1s-.4-1-1-1zm0 7h-20c-.6 0-1 .4-1 1s.4 1 1 1h20c.6 0 1-.4 1-1s-.4-1-1-1z"/></symbol>
  
  <symbol id="share" viewBox="0 0 22 22"><path d="M21 10c-.6 0-1 .4-1 1v7h-18v-7c0-.6-.4-1-1-1s-1 .4-1 1v7c0 1.1.9 2 2 2h18c1.1 0 2-.9 2-2v-7c0-.6-.4-1-1-1zM5.5 7.5c.3 0 .5-.1.7-.3l3.8-3.8v9.6c0 .6.4 1 1 1s1-.4 1-1v-9.6l3.8 3.8c.2.2.5.3.7.3s.5-.1.7-.3c.4-.4.4-1 0-1.4l-5.5-5.5c-.1-.1-.2-.2-.3-.2-.2-.1-.5-.1-.8 0l-.3.2-5.5 5.5c-.4.4-.4 1 0 1.4.2.2.4.3.7.3z"/></symbol>
  
  <symbol id="arrow-down" viewBox="0 0 24 24"><path d="M12 18c-.2 0-.5-.1-.7-.3l-11-10c-.4-.4-.4-1-.1-1.4.4-.4 1-.4 1.4-.1l10.4 9.4 10.3-9.4c.4-.4 1-.3 1.4.1.4.4.3 1-.1 1.4l-11 10c-.1.2-.4.3-.6.3z"/></symbol>
  
  <symbol id="arrow-up" viewBox="0 0 24 24"><path d="M11.9 5.9c.2 0 .5.1.7.3l11 10c.4.4.4 1 .1 1.4-.4.4-1 .4-1.4.1l-10.4-9.4-10.3 9.4c-.4.4-1 .3-1.4-.1-.4-.4-.3-1 .1-1.4l11-10c.1-.2.4-.3.6-.3z"/></symbol>
  
  <symbol id="arrow-top" viewBox="0 0 24 24"><path d="M20.7 10.3l-8-8c-.4-.4-1-.4-1.4 0l-8 8c-.4.4-.4 1 0 1.4s1 .4 1.4 0l6.3-6.3v15.6c0 .6.4 1 1 1s1-.4 1-1v-15.6l6.3 6.3c.2.2.5.3.7.3s.5-.1.7-.3c.4-.4.4-1 0-1.4z"/></symbol>

  <symbol id="drop-down" viewBox="0 0 16 16"><polyline stroke-width="2" stroke-linecap="round" stroke-linejoin="round" stroke-miterlimit="10" points="1,5 8,12 15,5" fill="none"></polyline></symbol>
  
  <symbol id="play" viewBox="0 0 30 30"><path d="M7 30v-30l22 15z"/></symbol>
  
  <symbol id="login" viewBox="0 0 22 22"><path d="M13 2c0 .6.4 1 1 1h6v16h-6c-.6 0-1 .4-1 1s.4 1 1 1h6c1.1 0 2-.9 2-2v-16c0-1.1-.9-2-2-2h-6c-.6 0-1 .4-1 1zm-6.5 3.5c0 .3.1.5.3.7l3.8 3.8h-9.6c-.6 0-1 .4-1 1s.4 1 1 1h9.6l-3.8 3.8c-.2.2-.3.5-.3.7s.1.5.3.7c.4.4 1 .4 1.4 0l5.5-5.5c.1-.1.2-.2.2-.3.1-.2.1-.5 0-.8l-.2-.3-5.5-5.5c-.4-.4-1-.4-1.4 0-.2.2-.3.4-.3.7z"/></symbol>
  
  <symbol id="chat" viewBox="0 0 22 22"><path d="M11 22c-.1 0-.3 0-.4-.1-.4-.1-.6-.5-.6-.9v-4h-7.8c-1.2 0-2.2-1-2.2-2.2v-11.6c0-1.2 1-2.2 2.2-2.2h17.7c1.1 0 2.1 1 2.1 2.2v11.7c0 1.2-1 2.2-2.2 2.2h-3.4l-4.7 4.7c-.2.1-.4.2-.7.2zm-8.8-19c-.1 0-.2.1-.2.2v11.7s.1.1.2.1h8.8c.6 0 1 .4 1 1v2.6l3.3-3.3c.2-.2.4-.3.7-.3h3.8c.1 0 .2-.1.2-.2v-11.6c0-.1-.1-.2-.2-.2h-17.6zM5 6h6v2h-6zM5 10h10v2h-10z"/></symbol>
  
  <symbol id="mail" viewBox="0 0 22 22"><path d="M19.8 2h-17.6c-1.2 0-2.2 1-2.2 2.2v13.5c0 1.3 1 2.3 2.2 2.3h17.5c1.2 0 2.2-1 2.2-2.2v-13.6c.1-1.2-.9-2.2-2.1-2.2zm-17.6 2h17.5c.2 0 .3.1.3.2v.3l-9 6.3-9-6.3v-.3c0-.1.1-.2.2-.2zm17.6 14h-17.6c-.1 0-.2-.1-.2-.2v-10.9l8.1 5.7c.3.2.6.3.9.3.3 0 .6-.1.9-.3l8.1-5.7v10.9c0 .1-.1.2-.2.2z"/></symbol>

  <symbol id="sound-on" viewBox="0 0 22 22"><path d="M15 15c-.2 0-.4-.1-.6-.2-.4-.3-.5-1-.2-1.4.5-.7.8-1.5.8-2.4s-.3-1.7-.8-2.4c-.3-.4-.2-1.1.2-1.4.4-.3 1.1-.2 1.4.2.8 1 1.2 2.3 1.2 3.6s-.4 2.6-1.2 3.6c-.2.3-.5.4-.8.4zm4 2.3c-.2 0-.5-.1-.7-.2-.4-.4-.5-1-.1-1.4 1.2-1.3 1.8-3 1.8-4.7 0-1.8-.7-3.5-1.9-4.8-.4-.4-.4-1 0-1.4s1-.4 1.4 0c1.6 1.7 2.5 3.9 2.5 6.2 0 2.2-.8 4.3-2.2 6-.2.2-.5.3-.8.3zm-9 2.7c-.2 0-.4-.1-.6-.2l-4.8-3.8h-2.1c-1.4 0-2.5-1.1-2.5-2.5v-5c0-1.4 1.1-2.5 2.5-2.5h2.2l4.7-3.8c.3-.2.7-.3 1.1-.1.3.2.5.5.5.9v16c0 .4-.2.7-.6.9-.1.1-.3.1-.4.1zm-7.5-12c-.3 0-.5.2-.5.5v5c0 .3.2.5.5.5h2.5c.2 0 .4.1.6.2l3.4 2.7v-11.8l-3.4 2.7c-.2.1-.4.2-.6.2h-2.5z"/></symbol>
  
  <symbol id="sound-off" viewBox="0 0 22 22"><path d="M10.434 2.098c-.347-.165-.758-.119-1.058.121l-4.726 3.781h-2.154c-1.376 0-2.496 1.12-2.496 2.496v5.009c0 1.376 1.12 2.495 2.496 2.495h2.153l4.726 3.781c.181.145.402.219.625.219.147 0 .295-.032.433-.099.347-.167.567-.516.567-.901v-16c0-.384-.22-.735-.566-.902zm-1.434 14.821l-3.375-2.7c-.178-.142-.398-.219-.625-.219h-2.504c-.274 0-.496-.222-.496-.495v-5.009c0-.274.222-.496.496-.496h2.504c.227 0 .447-.077.625-.219l3.375-2.7v11.838zM19.414 11l2.293-2.293c.391-.391.391-1.023 0-1.414s-1.023-.391-1.414 0l-2.293 2.293-2.293-2.293c-.391-.391-1.023-.391-1.414 0s-.391 1.023 0 1.414l2.293 2.293-2.293 2.293c-.391.391-.391 1.023 0 1.414.195.195.451.293.707.293s.512-.098.707-.293l2.293-2.293 2.293 2.293c.195.195.451.293.707.293s.512-.098.707-.293c.391-.391.391-1.023 0-1.414l-2.293-2.293z"/></symbol>
  
  <!-- social -->
  <symbol id="apple" viewBox="-1 1 24 24"><path d="M17.6 13.8c0-3 2.5-4.5 2.6-4.6-1.4-2.1-3.6-2.3-4.4-2.4-1.9-.2-3.6 1.1-4.6 1.1-.9 0-2.4-1.1-4-1-2 0-3.9 1.2-5 3-2.1 3.7-.5 9.1 1.5 12.1 1 1.5 2.2 3.1 3.8 3 1.5-.1 2.1-1 3.9-1s2.4 1 4 1 2.7-1.5 3.7-2.9c1.2-1.7 1.6-3.3 1.7-3.4-.1-.1-3.2-1.3-3.2-4.9zm-3.1-9c.8-1 1.4-2.4 1.2-3.8-1.2 0-2.7.8-3.5 1.8-.8.9-1.5 2.3-1.3 3.7 1.4.1 2.8-.7 3.6-1.7z"/></symbol>

  <symbol id="dribbble" viewBox="0 0 24 24"><path d="M12 0c-6.7 0-12 5.3-12 12s5.3 12 12 12 12-5.3 12-12-5.3-12-12-12zm7.9 5.7c1.3 1.7 2.1 3.9 2.3 6.1-.4-.1-2.4-.4-4.7-.4-.8 0-1.5 0-2.3.1 0-.1-.1-.3-.3-.5l-.7-1.5c3.7-1.4 5.3-3.4 5.7-3.8zm-7.9-3.8c2.5 0 4.9.9 6.7 2.5-.3.4-1.9 2.3-5.2 3.6-1.6-2.9-3.3-5.3-3.7-5.9.6-.1 1.4-.2 2.2-.2zm-4.4 1c.4.6 2.1 3 3.7 5.8-4.4 1.2-8.2 1.2-9.2 1.2h-.1c.8-3.1 2.9-5.6 5.6-7zm-5.7 9.1v-.3h.3c1.2 0 5.6-.1 10.1-1.5l.8 1.6c-.1 0-.3 0-.4.1-5.1 1.6-7.9 6-8.3 6.7-1.6-1.7-2.5-4.1-2.5-6.6zm10.1 10.1c-2.3 0-4.4-.8-6.1-2.1.3-.5 2.4-4.4 7.9-6.3 1.3 3.6 2 6.7 2.1 7.6-1.2.6-2.6.8-3.9.8zm5.7-1.8c-.1-.8-.7-3.6-2-7.1.7-.1 1.3-.1 2-.1 2.1 0 3.7.4 4.1.5-.3 2.8-1.8 5.2-4.1 6.7z"/></symbol>

  <symbol id="facebook" viewBox="0 0 24 24"><path d="M24 1.3v21.3c0 .7-.6 1.3-1.3 1.3h-6.1v-9.3h3.1l.5-3.6h-3.6v-2.2c0-1.1.3-1.8 1.8-1.8h1.9v-3.2c-.3 0-1.5-.1-2.8-.1-2.8 0-4.7 1.7-4.7 4.8v2.7h-3.1v3.6h3.1v9.2h-11.5c-.7 0-1.3-.6-1.3-1.3v-21.4c0-.7.6-1.3 1.3-1.3h21.3c.8 0 1.4.6 1.4 1.3z"/></symbol>
   
  <symbol id="fb-like" viewBox="0 0 20 20"><path d="M0 8v12h5v-12h-5zm2.5 10.8c-.4 0-.8-.3-.8-.8 0-.4.3-.8.8-.8s.8.3.8.8c0 .4-.4.8-.8.8zm3.5-.8h9.5c1.1 0 1.7-1 1.7-1.7 0-.3-.4-1-.4-1 1.4-.3 1.7-1.2 1.7-1.7-.1-.5-.3-.9-.5-1 1-.4 1.5-1.1 1.4-1.9-.1-.8-1-1.5-1-1.5 1-.6.9-1.5.9-1.5-.3-1.3-1.5-1.7-1.7-1.7h-5.6s.3-.5.3-2.4-1.3-3.6-2.6-3.6c0 0-.7.1-1 .3v3.5l-2.7 4.4v9.8z"/></symbol>
  
  <symbol id="googlePlus" viewBox="0 1 24 24"><path d="M7.8 13.5h4.6c-.6 2-2.5 3.4-4.6 3.4-2.7 0-4.9-2.2-4.9-4.9s2.2-4.9 4.9-4.9c1.1 0 2.1.3 3 1l1.8-2.4c-1.4-1.1-3-1.6-4.8-1.6-4.3 0-7.9 3.5-7.9 7.9s3.5 7.9 7.9 7.9 7.9-3.5 7.9-7.9v-1.5h-7.9v3zM21.7 11v-2.2h-2v2.2h-2.2v2h2.2v2.2h2v-2.2h2.2v-2z"/></symbol>
  
  <symbol id="instagram" viewBox="0 0 24 24"><path d="M12 2.2c3.2 0 3.6 0 4.8.1 1.2.1 1.8.2 2.2.4.6.2 1 .5 1.4.9.4.4.7.8.9 1.4.2.4.4 1.1.4 2.2.1 1.3.1 1.6.1 4.8s0 3.6-.1 4.8c-.1 1.2-.2 1.8-.4 2.2-.2.6-.5 1-.9 1.4-.4.4-.8.7-1.4.9-.4.2-1.1.4-2.2.4-1.3.1-1.6.1-4.8.1s-3.6 0-4.8-.1c-1.2-.1-1.8-.2-2.2-.4-.6-.2-1-.5-1.4-.9-.4-.4-.7-.8-.9-1.4-.2-.4-.4-1.1-.4-2.2-.1-1.3-.1-1.6-.1-4.8s0-3.6.1-4.8c0-1.2.2-1.9.3-2.3.2-.6.5-1 .9-1.4.5-.4.9-.6 1.4-.9.4-.1 1.1-.3 2.3-.4h4.8m0-2.2c-3.3 0-3.7 0-4.9.1-1.3 0-2.2.2-3 .5-.7.3-1.4.7-2.1 1.4-.7.7-1.1 1.4-1.4 2.1-.3.8-.5 1.7-.5 3-.1 1.2-.1 1.6-.1 4.9 0 3.3 0 3.7.1 4.9.1 1.3.3 2.1.6 2.9.2.8.6 1.5 1.3 2.2.7.7 1.3 1.1 2.1 1.4.8.3 1.6.5 2.9.6h5s3.7 0 4.9-.1c1.3-.1 2.1-.3 2.9-.6.8-.3 1.5-.7 2.1-1.4.7-.7 1.1-1.3 1.4-2.1.3-.8.5-1.6.6-2.9.1-1.2.1-1.6.1-4.9s0-3.7-.1-4.9c-.1-1.3-.3-2.1-.6-2.9-.2-.8-.6-1.5-1.3-2.2-.7-.7-1.3-1.1-2.1-1.4-.8-.3-1.6-.5-2.9-.6h-5zM12 5.8c-3.4 0-6.2 2.8-6.2 6.2s2.8 6.2 6.2 6.2 6.2-2.8 6.2-6.2-2.8-6.2-6.2-6.2zm0 10.2c-2.2 0-4-1.8-4-4s1.8-4 4-4 4 1.8 4 4-1.8 4-4 4z"/><circle class="st0" cx="18.4" cy="5.6" r="1.4"/></symbol>
  
  <symbol id="linkedin" viewBox="0 0 24 24"><path d="M22.2 0h-20.4c-1 0-1.8.8-1.8 1.7v20.7c0 1 .8 1.7 1.8 1.7h20.5c1 0 1.8-.8 1.8-1.7v-20.7c-.1-.9-.9-1.7-1.9-1.7zm-14.9 20.2h-3.6v-10.9h3.6v10.9zm-1.8-12.4c-1.2 0-2-.8-2-1.9 0-1.1.8-1.9 2.1-1.9 1.2 0 2 .8 2 1.9-.1 1.1-.9 1.9-2.1 1.9zm14.8 12.4h-3.6v-5.8c0-1.5-.5-2.5-1.8-2.5-1 0-1.6.7-1.9 1.3-.1.2-.1.6-.1.9v6.1h-3.6v-10.9h3.6v1.5c.5-.7 1.3-1.8 3.3-1.8 2.4 0 4.2 1.6 4.2 4.9v6.3z"/></symbol>

  <symbol id="medium" viewBox="0 0 24 24"><path d="M7.601 5.357c-2.305-1.137-4.6-2.294-6.899-3.444-.577-.289-.694-.216-.694.43-.001 5.147.005 10.294-.008 15.441-.001.57.224.911.726 1.158 2.126 1.047 4.242 2.116 6.362 3.176l.326.151c.308.115.494-.016.562-.315.032-.14.02-.283.02-.438l.009-15.482c.002-.337-.091-.523-.404-.677zm15.983-.001c-2.369-1.184-4.74-2.366-7.101-3.565-.368-.187-.559-.114-.769.231-1.431 2.356-2.876 4.703-4.328 7.046-.144.233-.15.4-.004.637 1.605 2.593 3.198 5.193 4.795 7.79l.238.36.107-.138c2.426-3.948 4.848-7.898 7.283-11.841.204-.33.01-.405-.221-.52zm.413 16.185c.001-4.694.001-9.387.001-14.081v-.38l-.076-.023-7.257 11.812.257.156c2.095 1.05 4.191 2.098 6.287 3.146l.219.097c.314.112.489-.032.554-.329.027-.128.015-.265.015-.398zm-15.273-14.526c-.001 2.547.003 5.093-.008 7.64-.001.234.105.321.285.411 2.204 1.1 4.405 2.205 6.608 3.307l.333.12-7.183-11.692-.035.214z"/></symbol>
  
  <symbol id="pinterest" viewBox="0 0 24 24"><path d="M5.9 13.9c1.2-2-.4-2.5-.6-4-1-6.1 7.1-10.2 11.4-6 2.9 2.9 1 12-3.7 11-4.6-.9 2.2-8.1-1.4-9.5-3-1.1-4.6 3.6-3.2 5.9-.8 4-2.5 7.7-1.8 12.7 2.3-1.7 3.1-4.8 3.7-8.1 1.2.7 1.8 1.4 3.3 1.5 5.5.4 8.6-5.4 7.8-10.7-.7-4.7-5.5-7.1-10.6-6.6-4.1.4-8.1 3.7-8.3 8.3-.1 2.8.7 4.9 3.4 5.5z"/></symbol>
  
  <symbol id="stumbleupon" viewBox="0 0 24 24"><path d="M13.3 9.6l1.6.8 2.5-.8v-1.4c0-3-2.4-5.4-5.4-5.4s-5.4 2.4-5.4 5.4v7.5c0 .7-.6 1.3-1.3 1.3s-1.3-.6-1.3-1.3v-3.2h-4v3.2c0 3 2.4 5.4 5.4 5.4s5.4-2.4 5.4-5.4v-7.5c0-.7.6-1.3 1.3-1.3s1.3.6 1.3 1.3l-.1 1.4zm6.6 2.9v3.2c0 .7-.6 1.3-1.3 1.3s-1.3-.6-1.3-1.3v-3.2l-2.5.8-1.6-.8v3.2c0 3 2.4 5.4 5.4 5.4s5.4-2.4 5.4-5.4v-3.2h-4.1z"/></symbol>
  
  <symbol id="twitter" viewBox="0 1 24 23"><path d="M21.5 7.6v.6c0 6.6-5 14.1-14 14.1-2.8 0-5.4-.8-7.6-2.2l1.2.1c2.3 0 4.4-.8 6.1-2.1-2.2 0-4-1.5-4.6-3.4.3.1.6.1.9.1.5 0 .9-.1 1.3-.2-2.1-.6-3.8-2.6-3.8-5 .7.4 1.4.6 2.2.6-1.3-.9-2.2-2.4-2.2-4.1 0-.9.2-1.8.7-2.5 2.4 3 6.1 5 10.2 5.2-.1-.4-.1-.7-.1-1.1 0-2.7 2.2-5 4.9-5 1.4 0 2.7.6 3.6 1.6 1-.3 2.1-.7 3-1.3-.4 1.2-1.1 2.1-2.2 2.7 1-.1 1.9-.4 2.8-.8-.6 1.1-1.4 2-2.4 2.7z"/></symbol>
  
  <symbol id="tumblr" viewBox="0 0 23 23"><path d="M12.573 4.94v-4.94h-3.188c-.072.183-.11.4-.11.622-.034.107-.072.184-.072.293-.328 1.829-1.28 3.11-2.892 3.807-.476.218-.914.253-1.39.218v3.987h2.342c.039 5.603.039 8.493.039 8.64v.332c.294 2.449 1.573 3.914 3.843 4.463.914.257 1.901.366 2.892.366 1.279-.036 2.525-.256 3.771-.659v-4.685c-.731.22-1.395.402-1.977.583-1.135.333-2.087.113-2.857-.619-.073-.11-.183-.257-.221-.403-.106-.586-.178-1.206-.178-1.795v-6.222h5.083v-3.988h-5.085z"/></symbol>

  <symbol id="xing" viewBox="0 0 24 24"><path d="M3.647 4.74c-.208 0-.384.073-.472.216-.091.148-.077.338.02.531l2.34 4.051v.02l-3.678 6.49c-.096.191-.091.383 0 .531.088.142.244.236.452.236h3.461c.518 0 .767-.349.944-.669l3.737-6.608-2.38-4.15c-.172-.307-.433-.649-.964-.649h-3.46zm14.542-4.74c-.517 0-.741.326-.927.659l-7.702 13.658 4.918 9.023c.172.307.437.659.967.659h3.457c.208 0 .371-.079.459-.221.092-.148.09-.343-.007-.535l-4.88-8.915v-.023l7.664-13.551c.096-.191.098-.386.007-.534-.088-.142-.252-.221-.46-.221h-3.496z"/></symbol>
  
  <symbol id="youtube" viewBox="0 0 24 24"><path d="M23.6 6.3c-.3-1.2-1.4-2.2-2.6-2.3-3-.3-6-.3-9-.3s-6 0-9 .3c-1.2.1-2.3 1.1-2.6 2.3-.4 1.8-.4 3.8-.4 5.7 0 1.9 0 3.9.4 5.7.3 1.2 1.4 2.2 2.6 2.3 3 .3 6 .3 9 .3s6 0 9-.3c1.3-.1 2.3-1.1 2.6-2.4.4-1.7.4-3.7.4-5.6 0-1.9 0-3.9-.4-5.7zm-14.1 9v-6.6l6.5 3.3-6.5 3.3z"/></symbol>

</svg>