<?xml version="1.0" standalone="no"?>
<!DOCTYPE svg PUBLIC "-//W3C//DTD SVG 20010904//EN"
 "http://www.w3.org/TR/2001/REC-SVG-20010904/DTD/svg10.dtd">
<svg version="1.0" xmlns="http://www.w3.org/2000/svg"
 width="16.000000pt" height="16.000000pt" viewBox="0 0 16.000000 16.000000"
 preserveAspectRatio="xMidYMid meet">
<metadata>
Created by potrace 1.11, written by Peter Selinger 2001-2013
</metadata>
<g transform="translate(0.000000,16.000000) scale(0.003556,-0.003556)"
fill="#000000" stroke="none">
<path d="M2200 4010 c-5 -133 -5 -135 -27 -132 -27 4 -31 -16 -5 -25 26 -10
32 -23 32 -74 0 -52 -7 -64 -28 -46 -13 10 -14 8 -8 -11 5 -13 3 -29 -4 -37
-6 -8 -9 -23 -5 -34 3 -10 1 -22 -5 -26 -7 -4 -9 -18 -6 -31 4 -15 2 -24 -5
-24 -7 0 -9 -11 -5 -30 3 -18 1 -30 -5 -30 -6 0 -9 -10 -8 -22 2 -13 0 -29 -5
-36 -4 -7 -5 -24 -2 -38 4 -15 2 -24 -5 -24 -7 0 -9 -11 -6 -30 4 -16 2 -32
-4 -36 -6 -3 -8 -16 -5 -28 8 -31 -3 -41 -63 -54 -73 -17 -228 -91 -308 -148
-138 -99 -257 -242 -329 -400 -35 -76 -84 -244 -84 -290 0 -15 -9 -28 -27 -38
-39 -20 -68 -54 -92 -106 -27 -59 -26 -114 3 -175 31 -66 67 -108 135 -155 40
-27 61 -50 73 -79 l16 -41 -43 -19 c-148 -66 -211 -231 -142 -374 44 -88 124
-144 222 -154 43 -5 57 -11 74 -34 12 -15 41 -40 66 -54 43 -26 49 -26 173
-23 l129 3 44 36 c38 31 48 35 74 27 17 -5 73 -11 125 -14 241 -15 535 78 738
233 163 125 326 370 383 579 15 54 32 91 55 118 105 123 97 297 -21 424 -29
31 -63 82 -76 112 -124 293 -397 521 -699 583 -142 30 -142 30 -121 -26 8 -20
19 -25 59 -31 96 -13 310 -96 297 -116 -3 -5 0 -12 6 -16 8 -4 9 -3 5 4 -12
19 10 14 35 -9 13 -11 17 -17 9 -13 -8 4 -29 8 -47 7 -18 0 -30 3 -27 8 3 5
-2 6 -10 3 -9 -3 -16 -22 -19 -47 -2 -30 -4 -22 -5 25 -3 93 -22 98 -24 6 -1
-42 -3 -56 -5 -33 -2 22 -6 47 -9 55 -5 13 -7 13 -17 0 -17 -22 -167 -22 -185
0 -11 13 -12 12 -7 -6 3 -11 39 -141 81 -290 118 -423 224 -833 224 -871 0 -2
-31 -3 -68 -3 -37 0 -72 -4 -77 -9 -6 -5 -121 -11 -256 -15 l-247 -6 -6 33
c-4 17 -6 119 -6 225 1 146 -2 197 -12 210 -7 9 8 -2 34 -25 67 -60 109 -76
191 -70 37 2 69 1 72 -2 2 -4 13 -44 25 -89 18 -69 20 -88 10 -118 -19 -58
-104 -94 -150 -64 -13 9 -13 10 1 10 24 0 62 46 62 74 0 89 -107 115 -148 35
-22 -41 -13 -88 23 -122 71 -69 189 -52 232 33 25 49 25 64 -4 176 l-23 90 37
32 c129 108 71 324 -90 340 l-50 5 -15 50 c-8 28 -15 54 -15 58 0 4 16 30 35
59 69 103 87 242 46 350 -56 146 -96 157 -151 40 -13 -27 -19 -34 -16 -19 11
52 45 336 52 429 6 86 5 98 -12 114 -13 14 -20 38 -22 86 -4 66 -4 67 23 74
l28 7 -26 27 c-24 25 -26 35 -29 127 l-4 100 -4 -135z m-43 -830 c-22 -173
-41 -342 -42 -375 -3 -44 -13 -81 -42 -140 -32 -68 -38 -90 -38 -145 1 -45 7
-80 22 -113 12 -26 18 -45 13 -42 -6 4 -10 -34 -10 -98 0 -57 -3 -125 -6 -151
l-7 -46 -48 0 c-49 0 -49 0 -49 33 1 46 35 325 64 517 13 91 32 215 41 275 15
99 30 193 108 680 l22 140 6 -110 c4 -91 -2 -164 -34 -425z m-100 -37 c-3 -16
-20 -128 -38 -250 l-33 -222 -53 -7 c-29 -3 -69 -3 -88 0 l-35 7 0 64 c0 52 3
63 14 59 13 -5 38 -58 32 -66 -2 -1 -6 -16 -10 -33 -6 -28 -5 -29 9 -11 26 33
19 91 -15 129 -16 19 -30 42 -30 51 0 9 -4 16 -10 16 -6 0 -10 -40 -10 -100 0
-76 -3 -100 -13 -100 -15 0 -76 43 -93 65 -8 11 -18 12 -48 4 -20 -5 -59 -9
-86 -7 l-50 3 43 65 c53 78 193 212 269 258 70 41 207 102 232 102 15 0 17 -5
13 -27z m277 1 c3 -9 6 -35 6 -58 0 -46 -46 -150 -79 -180 -19 -17 -20 -17
-27 21 -16 78 -1 176 34 216 19 21 58 22 66 1z m-120 -273 c3 -5 -11 -28 -32
-52 l-38 -43 12 85 c7 46 14 111 15 144 l1 60 18 -92 c10 -51 21 -97 24 -102z
m637 152 c13 -16 12 -17 -3 -4 -17 13 -22 21 -14 21 2 0 10 -8 17 -17z m137
-121 c27 -31 66 -83 86 -115 37 -57 96 -180 96 -198 0 -21 -109 5 -124 30 -3
5 -41 7 -84 4 -70 -4 -82 -2 -132 24 -32 16 -65 42 -77 62 -29 43 -31 114 -4
154 21 32 82 76 119 86 59 16 69 12 120 -47z m-720 -222 l12 -51 -39 -37 c-65
-62 -73 -148 -21 -214 22 -28 77 -55 88 -43 4 4 1 10 -7 13 -8 3 -25 15 -38
28 -33 34 -31 85 6 126 16 18 32 31 35 28 11 -12 68 -241 61 -248 -4 -4 -35
-7 -69 -7 -52 0 -70 5 -105 28 -67 45 -83 78 -78 167 2 42 11 91 20 110 17 36
107 150 118 150 3 0 11 -23 17 -50z m140 -160 c40 -24 66 -81 58 -124 -7 -35
-41 -96 -55 -96 -7 0 -71 210 -71 234 0 13 36 5 68 -14z m37 -705 c108 -21
115 -23 115 -46 0 -16 -7 -19 -39 -19 -22 0 -42 4 -45 9 -10 16 -100 24 -286
24 l-185 1 150 5 c148 6 149 6 70 14 -76 7 -192 2 -225 -10 -8 -3 -35 -7 -60
-10 -37 -3 -43 -2 -32 9 31 31 411 47 537 23z m159 -41 c24 -9 19 -24 -9 -24
-18 0 -23 4 -19 15 7 17 7 17 28 9z m-531 -47 c22 -3 16 -4 -19 -5 -59 -2 -74
7 -42 24 19 10 24 10 26 -1 2 -8 18 -16 35 -18z m324 16 c-20 -2 -52 -2 -70 0
-17 2 0 4 38 4 39 0 53 -2 32 -4z m358 -81 l-26 -79 -112 -6 c-62 -4 -181 -7
-266 -7 l-154 0 -161 54 c-89 30 -170 56 -181 58 -11 2 84 7 210 11 209 5 514
27 655 46 30 4 56 6 58 5 2 -1 -8 -38 -23 -82z m-895 68 c0 -5 -12 -10 -26
-10 -14 0 -23 4 -19 10 3 6 15 10 26 10 10 0 19 -4 19 -10z m90 0 c0 -5 -11
-10 -25 -10 -14 0 -25 5 -25 10 0 6 11 10 25 10 14 0 25 -4 25 -10z m277 3
c-20 -2 -52 -2 -70 0 -17 2 0 4 38 4 39 0 53 -2 32 -4z m583 -33 c0 -11 -4
-20 -10 -20 -5 0 -10 9 -10 20 0 11 5 20 10 20 6 0 10 -9 10 -20z"/>
<path d="M2156 3923 c-11 -11 -6 -23 9 -23 8 0 15 4 15 9 0 13 -16 22 -24 14z"/>
<path d="M2008 3468 c4 -168 6 -187 17 -176 8 8 -7 348 -15 348 -4 0 -5 -78
-2 -172z"/>
<path d="M2476 3563 c-9 -43 -25 -115 -35 -160 -18 -81 -18 -83 0 -83 12 0 19
7 19 18 0 25 6 30 35 24 17 -3 28 -15 36 -39 6 -19 16 -32 22 -30 13 4 14 30
4 62 -5 15 0 24 21 36 38 21 66 82 59 126 -11 63 -52 106 -113 119 l-31 6 -17
-79z m95 8 c23 -23 29 -38 29 -71 0 -53 -42 -100 -89 -100 -36 0 -37 3 -16 97
28 121 28 121 76 74z"/>
<path d="M2521 3513 c-7 -32 -15 -66 -17 -75 -3 -10 -1 -18 5 -18 12 0 53 129
45 142 -12 19 -22 5 -33 -49z"/>
<path d="M1962 3621 c-10 -6 -12 -39 -10 -139 2 -73 1 -132 -2 -131 -3 0 -45
47 -94 105 -49 57 -92 104 -96 104 -3 0 -5 -64 -3 -142 l4 -143 -38 40 c-21
22 -61 66 -90 99 -37 42 -57 57 -68 52 -18 -7 -19 -6 140 -184 44 -50 84 -91
89 -91 5 -1 6 60 2 145 l-7 146 81 -93 c136 -156 121 -161 119 36 -1 180 -5
210 -27 196z"/>
<path d="M2642 3561 c27 -63 19 -109 -29 -162 -34 -37 -35 -42 -25 -74 8 -28
7 -35 -4 -35 -8 0 -14 -4 -14 -9 0 -5 9 -7 20 -4 22 6 25 19 10 57 -8 21 -6
27 9 36 58 30 83 145 46 208 -29 48 -36 39 -13 -17z"/>
<path d="M1813 3562 c-9 -6 5 -29 49 -81 34 -41 64 -69 65 -64 4 10 -87 152
-97 152 -3 1 -11 -3 -17 -7z"/>
<path d="M2761 3548 c-5 -13 -32 -80 -60 -151 -28 -70 -51 -130 -51 -132 0 -3
8 -5 18 -5 13 0 30 35 72 143 30 78 55 146 55 151 0 20 -25 16 -34 -6z"/>
<path d="M2811 3528 c-5 -13 -32 -80 -59 -151 -28 -70 -47 -129 -42 -132 7 -4
130 273 130 294 0 20 -20 11 -29 -11z"/>
<path d="M2926 3493 c-9 -30 -75 -338 -72 -340 4 -4 283 212 286 222 10 30
-38 7 -130 -64 -57 -44 -105 -79 -106 -78 -1 1 11 58 27 127 16 69 27 131 24
138 -6 18 -23 15 -29 -5z"/>
<path d="M1610 3479 c0 -15 124 -152 128 -140 5 14 -99 151 -114 151 -8 0 -14
-5 -14 -11z"/>
<path d="M2975 3468 c-7 -24 -35 -157 -35 -169 0 -27 18 9 43 85 15 43 24 83
21 87 -8 13 -24 11 -29 -3z"/>
<path d="M1814 3318 c6 -83 11 -109 19 -97 8 13 -6 189 -15 189 -8 0 -9 -29
-4 -92z"/>
<path d="M1430 3353 c0 -6 7 -16 15 -23 14 -12 11 -18 -21 -51 l-36 -37 33
-41 c19 -22 37 -41 41 -41 4 0 -3 23 -14 50 l-21 51 27 28 26 27 -25 24 c-14
13 -25 19 -25 13z"/>
<path d="M3027 3258 c-76 -57 -133 -104 -127 -106 9 -3 280 195 280 204 0 13
-32 -8 -153 -98z"/>
<path d="M2487 3344 c-4 -4 -7 -14 -7 -23 0 -11 3 -12 11 -4 6 6 10 16 7 23
-2 6 -7 8 -11 4z"/>
<path d="M1358 3294 c-23 -20 -43 -40 -43 -44 0 -13 198 -240 209 -240 6 0 34
20 61 44 39 35 47 47 38 57 -10 10 -21 4 -54 -26 l-42 -38 -20 24 -19 23 37
34 c26 24 34 37 26 45 -8 8 -22 2 -49 -20 l-39 -31 -51 58 c-29 32 -52 61 -52
65 0 3 16 19 35 36 31 28 38 49 15 49 -4 0 -28 -16 -52 -36z"/>
<path d="M3143 3177 l-118 -116 50 -50 c32 -34 52 -48 59 -41 7 7 -3 24 -29
51 l-40 40 25 19 25 19 35 -35 c28 -27 39 -31 48 -22 9 9 4 20 -23 48 l-35 36
60 59 60 59 39 -38 c25 -24 41 -34 46 -27 6 10 -11 32 -76 105 -4 5 -61 -43
-126 -107z"/>
<path d="M1540 3223 c0 -4 10 -17 22 -30 l22 -23 -37 -38 c-21 -21 -34 -41
-31 -45 12 -12 24 -8 24 7 0 8 14 26 30 39 36 31 36 34 5 70 -24 27 -35 33
-35 20z"/>
<path d="M3215 3170 c-45 -46 -43 -48 20 -18 l45 22 24 -23 c24 -23 26 -23 51
-7 14 9 23 21 19 27 -4 6 -13 4 -25 -7 -19 -17 -21 -16 -52 14 -18 18 -35 32
-38 32 -3 0 -23 -18 -44 -40z"/>
<path d="M1230 3166 c0 -9 262 -187 268 -182 3 3 3 8 1 9 -2 2 -59 43 -127 90
-108 77 -142 97 -142 83z"/>
<path d="M1626 3135 c16 -25 34 -33 34 -17 0 10 -33 42 -44 42 -3 0 1 -11 10
-25z"/>
<path d="M1206 3131 c-7 -10 8 -23 114 -97 l85 -59 -168 -11 c-92 -6 -170 -13
-173 -16 -7 -7 246 -187 264 -188 33 0 3 32 -83 91 -52 35 -95 67 -95 70 0 4
66 10 146 14 221 11 217 4 64 113 -131 92 -144 99 -154 83z"/>
<path d="M3350 3034 c-47 -30 -108 -69 -137 -87 -37 -23 -50 -36 -44 -46 7
-10 13 -11 31 -1 18 10 25 9 38 -4 14 -14 14 -19 0 -50 -9 -19 -14 -37 -11
-40 14 -14 31 -4 42 23 11 26 16 28 55 24 116 -13 196 107 136 205 -11 17 -21
32 -22 31 -2 0 -41 -25 -88 -55z m95 -28 c18 -94 -108 -164 -171 -95 -9 10
-14 22 -11 25 11 11 162 104 169 104 4 0 10 -15 13 -34z"/>
<path d="M3360 2975 c-30 -19 -59 -36 -65 -38 -5 -3 -7 -7 -4 -11 10 -10 139
56 139 71 0 19 -9 16 -70 -22z"/>
<path d="M3107 3074 c-11 -12 -8 -26 5 -22 6 2 26 -12 44 -31 l33 -36 30 29
c17 17 31 34 31 40 0 5 -14 -3 -30 -19 l-30 -29 -38 37 c-21 21 -41 34 -45 31z"/>
<path d="M1153 2993 c-29 -2 -53 -8 -53 -13 0 -10 154 -2 210 10 28 6 20 8
-35 7 -38 0 -94 -2 -122 -4z"/>
<path d="M3155 2960 c-10 -11 -14 -20 -8 -20 5 0 18 9 28 20 10 11 14 20 8 20
-5 0 -18 -9 -28 -20z"/>
<path d="M3498 2953 c-16 -70 -101 -131 -170 -121 -26 4 -33 0 -50 -28 -13
-23 -25 -31 -36 -27 -15 4 -15 3 -2 -6 24 -17 37 -13 49 17 11 25 17 28 60 28
83 0 167 75 159 141 l-3 28 -7 -32z"/>
<path d="M1214 2901 c10 -15 146 -105 151 -99 10 9 -113 108 -135 108 -12 0
-19 -4 -16 -9z"/>
<path d="M3195 2870 c-3 -5 1 -10 9 -10 8 0 18 5 21 10 3 6 -1 10 -9 10 -8 0
-18 -4 -21 -10z"/>
<path d="M3690 1040 c-28 -56 -49 -104 -46 -107 3 -3 28 41 56 97 28 56 49
104 46 107 -3 3 -28 -41 -56 -97z"/>
<path d="M3377 1049 c-111 -266 -116 -279 -96 -279 11 0 22 7 25 15 9 23 179
22 192 -1 5 -9 16 -14 24 -13 13 3 5 32 -43 154 -33 83 -63 159 -67 169 -7 16
-13 8 -35 -45z m64 -124 l37 -95 -74 0 c-41 0 -74 3 -74 8 0 13 65 182 70 182
3 0 21 -43 41 -95z"/>
<path d="M3379 905 c-9 -25 -13 -45 -9 -45 14 0 48 63 43 77 -9 23 -18 15 -34
-32z"/>
<path d="M975 1081 c-48 -22 -69 -44 -90 -94 -20 -49 -19 -72 6 -124 52 -108
192 -133 286 -50 65 57 79 124 40 197 -43 81 -151 113 -242 71z m142 -21 c140
-63 92 -263 -62 -263 -86 0 -145 59 -145 147 0 44 4 53 40 87 55 52 100 60
167 29z"/>
<path d="M987 1029 c-33 -25 -57 -69 -57 -105 0 -27 66 -104 90 -104 6 0 -5
15 -24 34 -30 27 -36 40 -36 73 0 47 28 89 74 109 30 13 30 13 6 13 -14 0 -38
-9 -53 -20z"/>
<path d="M1201 1074 c79 -86 78 -200 -2 -275 -17 -16 -26 -29 -21 -29 6 0 24
13 40 30 40 40 66 110 59 156 -8 46 -51 120 -80 135 -20 11 -20 9 4 -17z"/>
<path d="M1307 993 c-4 -58 -7 -132 -7 -165 0 -51 2 -58 20 -58 16 0 20 7 20
30 0 26 4 30 28 30 20 0 32 -8 45 -30 18 -30 47 -41 47 -17 0 6 -9 23 -20 37
l-19 25 32 33 c28 29 32 40 32 87 0 43 -5 59 -25 80 -30 33 -78 55 -118 55
l-29 0 -6 -107z m101 61 c34 -24 55 -71 48 -110 -8 -39 -57 -84 -92 -84 -24 0
-24 1 -24 105 0 103 1 105 23 105 12 0 33 -7 45 -16z"/>
<path d="M1366 1003 c-9 -55 -7 -113 3 -113 10 0 21 58 21 113 0 20 -4 37 -9
37 -4 0 -11 -17 -15 -37z"/>
<path d="M1466 1078 c55 -60 62 -135 19 -200 -27 -40 -27 -42 -10 -70 16 -28
16 -30 -2 -43 -10 -8 -13 -15 -7 -15 5 0 18 6 29 13 17 13 17 15 0 44 -17 30
-17 31 9 75 16 27 26 60 26 83 0 43 -39 119 -67 129 -15 6 -14 3 3 -16z"/>
<path d="M1670 1089 c-32 -13 -78 -56 -96 -91 -18 -35 -18 -101 1 -137 21 -41
69 -79 117 -92 64 -17 153 6 142 36 -4 8 -11 12 -16 9 -25 -16 -81 -21 -118
-12 -44 11 -96 62 -106 103 -25 101 80 194 187 165 29 -8 45 -8 52 -1 25 25
-108 42 -163 20z"/>
<path d="M1910 1083 c0 -10 -3 -84 -7 -165 -6 -147 -6 -148 16 -148 18 0 21 6
21 45 l0 45 111 0 110 0 -3 -42 c-2 -34 1 -43 15 -46 16 -3 17 10 17 162 0
141 -2 166 -15 166 -12 0 -15 -18 -15 -105 l0 -105 -110 0 -110 0 0 105 c0 87
-3 105 -15 105 -8 0 -15 -8 -15 -17z"/>
<path d="M1966 1014 c-7 -81 -4 -105 10 -91 3 3 9 44 11 91 8 115 -12 114 -21
0z"/>
<path d="M2216 939 c-7 -149 -5 -181 10 -167 10 11 18 328 7 328 -6 0 -13 -64
-17 -161z"/>
<path d="M2270 935 l0 -165 80 0 c64 0 80 3 80 15 0 12 -13 15 -60 15 l-60 0
0 35 0 35 55 0 c42 0 55 3 55 15 0 11 -13 15 -54 15 l-55 0 -3 85 -3 84 53 3
c79 4 68 23 -15 26 l-73 3 0 -166z"/>
<path d="M2440 1075 c0 -23 -3 -25 -50 -25 -58 0 -63 -6 -58 -71 l3 -44 20 53
c19 50 21 52 57 52 36 0 38 2 38 30 0 17 -2 30 -5 30 -3 0 -5 -11 -5 -25z"/>
<path d="M2562 1080 c-36 -22 -56 -62 -46 -94 4 -11 22 -38 41 -59 53 -60 61
-83 35 -110 -19 -19 -26 -20 -52 -10 -23 9 -32 8 -40 -2 -9 -10 -7 -16 9 -24
56 -31 131 9 131 70 0 24 -11 44 -45 80 -62 66 -59 118 8 142 20 7 23 27 5 27
-7 0 -28 -9 -46 -20z"/>
<path d="M2640 1078 c0 -16 5 -28 10 -28 13 0 13 20 0 40 -8 12 -10 9 -10 -12z"/>
<path d="M2710 1085 c0 -11 12 -15 50 -15 l50 0 0 -151 c0 -135 2 -150 17
-147 14 3 16 20 14 150 l-2 147 52 3 c31 2 54 8 57 16 3 9 -25 12 -117 12
-101 0 -121 -2 -121 -15z"/>
<path d="M2972 1075 c0 -16 2 -22 5 -12 2 9 2 23 0 30 -3 6 -5 -1 -5 -18z"/>
<path d="M3018 1094 c-5 -4 -8 -79 -8 -166 0 -151 1 -158 20 -158 16 0 20 7
20 30 0 42 36 41 71 -1 34 -42 58 -31 30 14 l-20 31 29 33 c55 62 45 147 -21
196 -28 20 -109 34 -121 21z m92 -39 c37 -19 50 -43 50 -95 0 -33 -6 -48 -29
-71 -17 -17 -40 -29 -55 -29 l-26 0 0 105 c0 116 3 120 60 90z"/>
<path d="M3070 965 c0 -43 4 -75 10 -75 6 0 10 10 10 23 0 12 3 46 6 75 6 44
4 52 -10 52 -13 0 -16 -12 -16 -75z"/>
<path d="M3184 1068 c48 -64 48 -141 0 -197 l-26 -31 21 -28 c19 -27 19 -30 3
-45 -20 -21 -4 -22 22 -2 18 13 18 15 -4 45 l-22 30 26 30 c50 61 44 150 -15
205 l-32 30 27 -37z"/>
<path d="M3440 1095 c0 -19 123 -325 131 -325 12 0 15 -10 -49 151 -59 145
-81 193 -82 174z"/>
<path d="M1846 1054 c-9 -24 -2 -26 12 -4 7 11 8 20 3 20 -5 0 -12 -7 -15 -16z"/>
<path d="M1679 1033 c-61 -38 -77 -120 -34 -171 14 -16 34 -32 45 -35 17 -4
15 0 -9 22 -34 32 -45 62 -37 105 7 36 37 69 76 85 21 8 22 10 5 10 -11 0 -32
-7 -46 -16z"/>
<path d="M2587 1032 c-10 -10 -17 -22 -17 -26 0 -5 20 -30 44 -57 53 -59 61
-91 37 -141 -20 -41 -11 -51 13 -16 9 12 16 41 16 64 0 34 -7 49 -40 87 -41
46 -49 74 -28 95 7 7 8 12 2 12 -6 0 -18 -8 -27 -18z"/>
<path d="M2714 1043 c10 -10 66 -11 66 -1 0 4 -16 8 -37 8 -20 0 -33 -3 -29
-7z"/>
<path d="M2883 1043 c-10 -3 -13 -41 -13 -139 0 -99 3 -133 11 -128 9 5 10 40
6 121 l-6 114 32 19 c31 19 31 20 7 19 -14 0 -31 -3 -37 -6z"/>
<path d="M656 866 c-21 -37 -36 -70 -33 -72 7 -7 78 117 74 129 -2 6 -20 -20
-41 -57z"/>
<path d="M2438 893 l-3 -38 -52 -3 c-41 -2 -53 -7 -53 -20 0 -12 3 -13 12 -4
7 7 34 12 60 12 l48 0 0 45 c0 55 -8 59 -12 8z"/>
<path d="M280 910 c0 -6 38 -10 95 -10 57 0 95 4 95 10 0 6 -38 10 -95 10 -57
0 -95 -4 -95 -10z"/>
<path d="M3915 889 c-9 -17 -14 -33 -11 -36 3 -3 11 6 17 21 12 25 15 26 103
27 50 1 96 1 103 0 6 -1 14 3 18 9 4 7 -31 10 -104 10 l-110 0 -16 -31z"/>
<path d="M524 886 c-9 -15 -14 -29 -11 -32 3 -3 13 6 23 20 9 15 14 29 11 32
-3 3 -13 -6 -23 -20z"/>
<path d="M3821 854 c-18 -30 -31 -58 -28 -60 3 -3 15 12 28 33 12 21 29 48 37
61 8 12 10 22 5 22 -4 0 -23 -25 -42 -56z"/>
<path d="M1840 829 c0 -16 27 -46 35 -38 2 2 -5 15 -15 29 -15 19 -20 21 -20
9z"/>
<path d="M1967 833 c-11 -10 -8 -63 3 -63 6 0 10 13 10 30 l0 29 83 4 82 3
-86 2 c-47 1 -89 -1 -92 -5z"/>
<path d="M2450 801 c0 -17 5 -31 10 -31 6 0 10 11 10 24 0 14 -4 28 -10 31 -6
4 -10 -7 -10 -24z"/>
<path d="M1365 797 c-4 -10 -5 -21 -1 -24 10 -10 18 4 13 24 -4 17 -4 17 -12
0z"/>
<path d="M3070 785 c0 -8 5 -15 10 -15 6 0 10 7 10 15 0 8 -4 15 -10 15 -5 0
-10 -7 -10 -15z"/>
<path d="M1442 723 c421 -2 1114 -2 1540 0 425 1 80 2 -767 2 -847 0 -1195 -1
-773 -2z"/>
<path d="M680 670 c0 -14 3066 -14 3075 0 4 7 -510 10 -1534 10 -1021 0 -1541
-3 -1541 -10z"/>
</g>
</svg>
